<mxfile host="app.diagrams.net" modified="2020-03-27T05:13:26.643Z" agent="Mozilla/5.0 (Windows NT 10.0; Win64; x64) AppleWebKit/537.36 (KHTML, like Gecko) Chrome/80.0.3987.149 Safari/537.36" etag="4vwhie3oor9FkVInb_3T" version="12.9.3" type="github">
  <diagram id="RNorpvvoh5dz3k51KkVT" name="Page-1">
    <mxGraphModel dx="2020" dy="880" grid="1" gridSize="10" guides="1" tooltips="1" connect="1" arrows="1" fold="1" page="1" pageScale="1" pageWidth="850" pageHeight="1100" math="0" shadow="0">
      <root>
        <mxCell id="0" />
        <mxCell id="1" parent="0" />
        <mxCell id="9_LjHgGApns-3MtyWlZG-6" style="edgeStyle=orthogonalEdgeStyle;rounded=0;orthogonalLoop=1;jettySize=auto;html=1;exitX=0.5;exitY=1;exitDx=0;exitDy=0;entryX=0.5;entryY=0;entryDx=0;entryDy=0;" parent="1" source="9_LjHgGApns-3MtyWlZG-2" target="9_LjHgGApns-3MtyWlZG-3" edge="1">
          <mxGeometry relative="1" as="geometry" />
        </mxCell>
        <mxCell id="9_LjHgGApns-3MtyWlZG-7" style="edgeStyle=orthogonalEdgeStyle;rounded=0;orthogonalLoop=1;jettySize=auto;html=1;exitX=0.5;exitY=1;exitDx=0;exitDy=0;entryX=0.5;entryY=0;entryDx=0;entryDy=0;" parent="1" source="9_LjHgGApns-3MtyWlZG-2" target="9_LjHgGApns-3MtyWlZG-4" edge="1">
          <mxGeometry relative="1" as="geometry" />
        </mxCell>
        <mxCell id="1ydk3U4ZFSy-2KVholBT-29" style="edgeStyle=orthogonalEdgeStyle;rounded=0;orthogonalLoop=1;jettySize=auto;html=1;exitX=0.5;exitY=1;exitDx=0;exitDy=0;entryX=0.5;entryY=0;entryDx=0;entryDy=0;" parent="1" source="9_LjHgGApns-3MtyWlZG-2" target="1ydk3U4ZFSy-2KVholBT-28" edge="1">
          <mxGeometry relative="1" as="geometry" />
        </mxCell>
        <mxCell id="9_LjHgGApns-3MtyWlZG-2" value="&lt;span&gt;WAFER LIST&lt;/span&gt;" style="shape=parallelogram;perimeter=parallelogramPerimeter;whiteSpace=wrap;html=1;fontStyle=0" parent="1" vertex="1">
          <mxGeometry x="658" y="20" width="120" height="30" as="geometry" />
        </mxCell>
        <mxCell id="9_LjHgGApns-3MtyWlZG-11" style="edgeStyle=orthogonalEdgeStyle;rounded=0;orthogonalLoop=1;jettySize=auto;html=1;exitX=0.5;exitY=1;exitDx=0;exitDy=0;" parent="1" source="9_LjHgGApns-3MtyWlZG-3" target="9_LjHgGApns-3MtyWlZG-10" edge="1">
          <mxGeometry relative="1" as="geometry" />
        </mxCell>
        <mxCell id="9_LjHgGApns-3MtyWlZG-3" value="SLDR.BCROWSUM" style="rounded=0;whiteSpace=wrap;html=1;" parent="1" vertex="1">
          <mxGeometry x="338" y="110" width="120" height="60" as="geometry" />
        </mxCell>
        <mxCell id="9_LjHgGApns-3MtyWlZG-12" style="edgeStyle=orthogonalEdgeStyle;rounded=0;orthogonalLoop=1;jettySize=auto;html=1;exitX=0.5;exitY=1;exitDx=0;exitDy=0;entryX=0.5;entryY=0;entryDx=0;entryDy=0;" parent="1" source="9_LjHgGApns-3MtyWlZG-4" target="9_LjHgGApns-3MtyWlZG-10" edge="1">
          <mxGeometry relative="1" as="geometry" />
        </mxCell>
        <mxCell id="9_LjHgGApns-3MtyWlZG-4" value="SLDR.JADE" style="rounded=0;whiteSpace=wrap;html=1;" parent="1" vertex="1">
          <mxGeometry x="498" y="110" width="120" height="60" as="geometry" />
        </mxCell>
        <mxCell id="1ydk3U4ZFSy-2KVholBT-4" style="edgeStyle=orthogonalEdgeStyle;rounded=0;orthogonalLoop=1;jettySize=auto;html=1;exitX=0;exitY=0.5;exitDx=0;exitDy=0;entryX=1;entryY=0.5;entryDx=0;entryDy=0;" parent="1" source="9_LjHgGApns-3MtyWlZG-10" target="9_LjHgGApns-3MtyWlZG-14" edge="1">
          <mxGeometry relative="1" as="geometry" />
        </mxCell>
        <mxCell id="1ydk3U4ZFSy-2KVholBT-22" style="edgeStyle=orthogonalEdgeStyle;rounded=0;orthogonalLoop=1;jettySize=auto;html=1;exitX=0.5;exitY=1;exitDx=0;exitDy=0;" parent="1" source="9_LjHgGApns-3MtyWlZG-10" target="1ydk3U4ZFSy-2KVholBT-23" edge="1">
          <mxGeometry relative="1" as="geometry">
            <mxPoint x="308" y="700" as="targetPoint" />
          </mxGeometry>
        </mxCell>
        <mxCell id="9_LjHgGApns-3MtyWlZG-10" value="MCW+BCL" style="rounded=0;whiteSpace=wrap;html=1;" parent="1" vertex="1">
          <mxGeometry x="418" y="220" width="120" height="60" as="geometry" />
        </mxCell>
        <mxCell id="9_LjHgGApns-3MtyWlZG-15" style="edgeStyle=orthogonalEdgeStyle;rounded=0;orthogonalLoop=1;jettySize=auto;html=1;exitX=0.5;exitY=1;exitDx=0;exitDy=0;" parent="1" source="9_LjHgGApns-3MtyWlZG-14" edge="1">
          <mxGeometry relative="1" as="geometry">
            <mxPoint x="278" y="320" as="targetPoint" />
          </mxGeometry>
        </mxCell>
        <mxCell id="1ydk3U4ZFSy-2KVholBT-10" style="edgeStyle=orthogonalEdgeStyle;rounded=0;orthogonalLoop=1;jettySize=auto;html=1;exitX=0;exitY=0.5;exitDx=0;exitDy=0;entryX=1;entryY=0.5;entryDx=0;entryDy=0;" parent="1" source="9_LjHgGApns-3MtyWlZG-14" target="1ydk3U4ZFSy-2KVholBT-9" edge="1">
          <mxGeometry relative="1" as="geometry" />
        </mxCell>
        <mxCell id="9_LjHgGApns-3MtyWlZG-14" value="GET LIST OF UNIQUE PRODUCT" style="rounded=0;whiteSpace=wrap;html=1;fontStyle=0" parent="1" vertex="1">
          <mxGeometry x="218" y="220" width="120" height="60" as="geometry" />
        </mxCell>
        <mxCell id="1ydk3U4ZFSy-2KVholBT-13" style="edgeStyle=orthogonalEdgeStyle;rounded=0;orthogonalLoop=1;jettySize=auto;html=1;exitX=0.5;exitY=1;exitDx=0;exitDy=0;entryX=0.5;entryY=0;entryDx=0;entryDy=0;" parent="1" source="9_LjHgGApns-3MtyWlZG-17" target="1ydk3U4ZFSy-2KVholBT-12" edge="1">
          <mxGeometry relative="1" as="geometry" />
        </mxCell>
        <mxCell id="9_LjHgGApns-3MtyWlZG-17" value="IMPORT PRODUCT_REFERENCE" style="shape=parallelogram;perimeter=parallelogramPerimeter;whiteSpace=wrap;html=1;" parent="1" vertex="1">
          <mxGeometry x="218" y="320" width="120" height="60" as="geometry" />
        </mxCell>
        <mxCell id="1ydk3U4ZFSy-2KVholBT-17" style="edgeStyle=orthogonalEdgeStyle;rounded=0;orthogonalLoop=1;jettySize=auto;html=1;exitX=0.5;exitY=1;exitDx=0;exitDy=0;entryX=0.5;entryY=0;entryDx=0;entryDy=0;" parent="1" source="1ydk3U4ZFSy-2KVholBT-9" target="1ydk3U4ZFSy-2KVholBT-15" edge="1">
          <mxGeometry relative="1" as="geometry" />
        </mxCell>
        <mxCell id="1ydk3U4ZFSy-2KVholBT-9" value="GET WAFERSPEC DATA (WAFSPEC2) OF EACH UNIQUE PROD" style="rounded=0;whiteSpace=wrap;html=1;" parent="1" vertex="1">
          <mxGeometry x="58" y="220" width="120" height="60" as="geometry" />
        </mxCell>
        <mxCell id="1ydk3U4ZFSy-2KVholBT-20" style="edgeStyle=orthogonalEdgeStyle;rounded=0;orthogonalLoop=1;jettySize=auto;html=1;exitX=0.5;exitY=1;exitDx=0;exitDy=0;entryX=0.5;entryY=0;entryDx=0;entryDy=0;" parent="1" source="1ydk3U4ZFSy-2KVholBT-12" target="1ydk3U4ZFSy-2KVholBT-19" edge="1">
          <mxGeometry relative="1" as="geometry" />
        </mxCell>
        <mxCell id="1ydk3U4ZFSy-2KVholBT-12" value="GET DETAILS OF EACH UNIQUE PROD IN PRODUCT_REFERENCE" style="rounded=0;whiteSpace=wrap;html=1;" parent="1" vertex="1">
          <mxGeometry x="218" y="420" width="120" height="60" as="geometry" />
        </mxCell>
        <mxCell id="1ydk3U4ZFSy-2KVholBT-18" style="edgeStyle=orthogonalEdgeStyle;rounded=0;orthogonalLoop=1;jettySize=auto;html=1;exitX=0.5;exitY=1;exitDx=0;exitDy=0;" parent="1" source="1ydk3U4ZFSy-2KVholBT-15" target="1ydk3U4ZFSy-2KVholBT-19" edge="1">
          <mxGeometry relative="1" as="geometry">
            <mxPoint x="168" y="570" as="targetPoint" />
          </mxGeometry>
        </mxCell>
        <mxCell id="1ydk3U4ZFSy-2KVholBT-15" value="GET MCWSA TARGET, MCWSA SENSITIVITY, SA SENSITIVITY QUAD" style="rounded=0;whiteSpace=wrap;html=1;" parent="1" vertex="1">
          <mxGeometry x="58" y="420" width="120" height="60" as="geometry" />
        </mxCell>
        <mxCell id="1ydk3U4ZFSy-2KVholBT-26" style="edgeStyle=orthogonalEdgeStyle;rounded=0;orthogonalLoop=1;jettySize=auto;html=1;exitX=1;exitY=0.5;exitDx=0;exitDy=0;" parent="1" source="1ydk3U4ZFSy-2KVholBT-19" target="1ydk3U4ZFSy-2KVholBT-23" edge="1">
          <mxGeometry relative="1" as="geometry" />
        </mxCell>
        <mxCell id="1ydk3U4ZFSy-2KVholBT-19" value="FINAL PRODUCT SPEC" style="rounded=0;whiteSpace=wrap;html=1;" parent="1" vertex="1">
          <mxGeometry x="138" y="550" width="120" height="60" as="geometry" />
        </mxCell>
        <mxCell id="1ydk3U4ZFSy-2KVholBT-37" style="edgeStyle=orthogonalEdgeStyle;rounded=0;orthogonalLoop=1;jettySize=auto;html=1;exitX=0.5;exitY=1;exitDx=0;exitDy=0;entryX=0.5;entryY=0;entryDx=0;entryDy=0;" parent="1" source="1ydk3U4ZFSy-2KVholBT-23" target="1ydk3U4ZFSy-2KVholBT-35" edge="1">
          <mxGeometry relative="1" as="geometry" />
        </mxCell>
        <mxCell id="1ydk3U4ZFSy-2KVholBT-38" style="edgeStyle=orthogonalEdgeStyle;rounded=0;orthogonalLoop=1;jettySize=auto;html=1;exitX=0.5;exitY=1;exitDx=0;exitDy=0;entryX=0.5;entryY=0;entryDx=0;entryDy=0;" parent="1" source="1ydk3U4ZFSy-2KVholBT-23" target="1ydk3U4ZFSy-2KVholBT-36" edge="1">
          <mxGeometry relative="1" as="geometry" />
        </mxCell>
        <mxCell id="63hM3TB45n_uLfok9Vn5-6" style="edgeStyle=orthogonalEdgeStyle;rounded=0;orthogonalLoop=1;jettySize=auto;html=1;exitX=1;exitY=0.5;exitDx=0;exitDy=0;entryX=0.5;entryY=0;entryDx=0;entryDy=0;" edge="1" parent="1" source="1ydk3U4ZFSy-2KVholBT-23" target="63hM3TB45n_uLfok9Vn5-5">
          <mxGeometry relative="1" as="geometry">
            <Array as="points">
              <mxPoint x="820" y="580" />
              <mxPoint x="820" y="1990" />
              <mxPoint x="640" y="1990" />
            </Array>
          </mxGeometry>
        </mxCell>
        <mxCell id="1ydk3U4ZFSy-2KVholBT-23" value="MCW + BCL + WAFSPEC (ROWNUM)" style="rounded=0;whiteSpace=wrap;html=1;" parent="1" vertex="1">
          <mxGeometry x="418" y="550" width="120" height="60" as="geometry" />
        </mxCell>
        <mxCell id="1ydk3U4ZFSy-2KVholBT-44" style="edgeStyle=orthogonalEdgeStyle;rounded=0;orthogonalLoop=1;jettySize=auto;html=1;exitX=0.5;exitY=1;exitDx=0;exitDy=0;entryX=0.5;entryY=0;entryDx=0;entryDy=0;" parent="1" source="1ydk3U4ZFSy-2KVholBT-28" target="1ydk3U4ZFSy-2KVholBT-40" edge="1">
          <mxGeometry relative="1" as="geometry" />
        </mxCell>
        <mxCell id="1ydk3U4ZFSy-2KVholBT-28" value="SLDR.WAFTOFABHIST&lt;br&gt;(DOWNLOAD WAL)&lt;br&gt;(WAFERNUM, ROWNUM)" style="rounded=0;whiteSpace=wrap;html=1;" parent="1" vertex="1">
          <mxGeometry x="643" y="690" width="150" height="60" as="geometry" />
        </mxCell>
        <mxCell id="1ydk3U4ZFSy-2KVholBT-76" style="edgeStyle=orthogonalEdgeStyle;rounded=0;orthogonalLoop=1;jettySize=auto;html=1;exitX=0.5;exitY=1;exitDx=0;exitDy=0;" parent="1" source="1ydk3U4ZFSy-2KVholBT-35" target="1ydk3U4ZFSy-2KVholBT-75" edge="1">
          <mxGeometry relative="1" as="geometry" />
        </mxCell>
        <mxCell id="1ydk3U4ZFSy-2KVholBT-104" style="edgeStyle=orthogonalEdgeStyle;rounded=0;orthogonalLoop=1;jettySize=auto;html=1;exitX=0;exitY=0.5;exitDx=0;exitDy=0;entryX=0.5;entryY=0;entryDx=0;entryDy=0;" parent="1" source="1ydk3U4ZFSy-2KVholBT-35" target="1ydk3U4ZFSy-2KVholBT-106" edge="1">
          <mxGeometry relative="1" as="geometry">
            <mxPoint x="40" y="1914" as="targetPoint" />
          </mxGeometry>
        </mxCell>
        <mxCell id="1ydk3U4ZFSy-2KVholBT-35" value="GET WAFERSIZE, MCWSA TARGET, ETC. PER WAFER" style="rounded=0;whiteSpace=wrap;html=1;" parent="1" vertex="1">
          <mxGeometry x="138" y="690" width="120" height="60" as="geometry" />
        </mxCell>
        <mxCell id="1ydk3U4ZFSy-2KVholBT-43" style="edgeStyle=orthogonalEdgeStyle;rounded=0;orthogonalLoop=1;jettySize=auto;html=1;exitX=0.5;exitY=1;exitDx=0;exitDy=0;entryX=0.5;entryY=0;entryDx=0;entryDy=0;" parent="1" source="1ydk3U4ZFSy-2KVholBT-36" target="1ydk3U4ZFSy-2KVholBT-40" edge="1">
          <mxGeometry relative="1" as="geometry" />
        </mxCell>
        <mxCell id="1ydk3U4ZFSy-2KVholBT-36" value="GET PROCESSTS PER WAFERNUM ROWNUM" style="rounded=0;whiteSpace=wrap;html=1;" parent="1" vertex="1">
          <mxGeometry x="498" y="690" width="120" height="60" as="geometry" />
        </mxCell>
        <mxCell id="1ydk3U4ZFSy-2KVholBT-46" style="edgeStyle=orthogonalEdgeStyle;rounded=0;orthogonalLoop=1;jettySize=auto;html=1;exitX=0.5;exitY=1;exitDx=0;exitDy=0;entryX=0.5;entryY=0;entryDx=0;entryDy=0;" parent="1" source="1ydk3U4ZFSy-2KVholBT-40" target="1ydk3U4ZFSy-2KVholBT-45" edge="1">
          <mxGeometry relative="1" as="geometry" />
        </mxCell>
        <mxCell id="1ydk3U4ZFSy-2KVholBT-94" style="edgeStyle=orthogonalEdgeStyle;rounded=0;orthogonalLoop=1;jettySize=auto;html=1;exitX=1;exitY=0.5;exitDx=0;exitDy=0;entryX=0.5;entryY=0;entryDx=0;entryDy=0;" parent="1" source="1ydk3U4ZFSy-2KVholBT-40" target="1ydk3U4ZFSy-2KVholBT-88" edge="1">
          <mxGeometry relative="1" as="geometry">
            <Array as="points">
              <mxPoint x="760" y="850" />
              <mxPoint x="760" y="1560" />
              <mxPoint x="640" y="1560" />
            </Array>
          </mxGeometry>
        </mxCell>
        <mxCell id="1ydk3U4ZFSy-2KVholBT-40" value="BCL + WAFER" style="rounded=0;whiteSpace=wrap;html=1;" parent="1" vertex="1">
          <mxGeometry x="580" y="820" width="120" height="60" as="geometry" />
        </mxCell>
        <mxCell id="1ydk3U4ZFSy-2KVholBT-48" value="" style="edgeStyle=orthogonalEdgeStyle;rounded=0;orthogonalLoop=1;jettySize=auto;html=1;" parent="1" source="1ydk3U4ZFSy-2KVholBT-45" target="1ydk3U4ZFSy-2KVholBT-47" edge="1">
          <mxGeometry relative="1" as="geometry" />
        </mxCell>
        <mxCell id="1ydk3U4ZFSy-2KVholBT-45" value="GET BCL_PROCESSTS - WAFER ACTIVETS" style="rounded=0;whiteSpace=wrap;html=1;" parent="1" vertex="1">
          <mxGeometry x="580" y="920" width="120" height="60" as="geometry" />
        </mxCell>
        <mxCell id="1ydk3U4ZFSy-2KVholBT-51" style="edgeStyle=orthogonalEdgeStyle;rounded=0;orthogonalLoop=1;jettySize=auto;html=1;exitX=0.5;exitY=1;exitDx=0;exitDy=0;entryX=0.5;entryY=0;entryDx=0;entryDy=0;" parent="1" source="1ydk3U4ZFSy-2KVholBT-47" target="1ydk3U4ZFSy-2KVholBT-50" edge="1">
          <mxGeometry relative="1" as="geometry" />
        </mxCell>
        <mxCell id="1ydk3U4ZFSy-2KVholBT-47" value="SELECT &amp;gt; 0" style="rounded=0;whiteSpace=wrap;html=1;" parent="1" vertex="1">
          <mxGeometry x="580" y="1030" width="120" height="60" as="geometry" />
        </mxCell>
        <mxCell id="1ydk3U4ZFSy-2KVholBT-54" style="edgeStyle=orthogonalEdgeStyle;rounded=0;orthogonalLoop=1;jettySize=auto;html=1;exitX=0.5;exitY=1;exitDx=0;exitDy=0;entryX=0.5;entryY=0;entryDx=0;entryDy=0;" parent="1" source="1ydk3U4ZFSy-2KVholBT-50" target="1ydk3U4ZFSy-2KVholBT-53" edge="1">
          <mxGeometry relative="1" as="geometry" />
        </mxCell>
        <mxCell id="1ydk3U4ZFSy-2KVholBT-72" style="edgeStyle=orthogonalEdgeStyle;rounded=0;orthogonalLoop=1;jettySize=auto;html=1;exitX=0;exitY=0.5;exitDx=0;exitDy=0;" parent="1" source="1ydk3U4ZFSy-2KVholBT-50" target="1ydk3U4ZFSy-2KVholBT-61" edge="1">
          <mxGeometry relative="1" as="geometry" />
        </mxCell>
        <mxCell id="1ydk3U4ZFSy-2KVholBT-50" value="GET MEAN, COUNT&amp;nbsp; DELTATS BY GROUP(WAFERNUM, ACTIVEUNTILTS)" style="rounded=0;whiteSpace=wrap;html=1;" parent="1" vertex="1">
          <mxGeometry x="550" y="1140" width="180" height="60" as="geometry" />
        </mxCell>
        <mxCell id="1ydk3U4ZFSy-2KVholBT-57" style="edgeStyle=orthogonalEdgeStyle;rounded=0;orthogonalLoop=1;jettySize=auto;html=1;exitX=0.5;exitY=1;exitDx=0;exitDy=0;entryX=0.5;entryY=0;entryDx=0;entryDy=0;" parent="1" source="1ydk3U4ZFSy-2KVholBT-53" target="1ydk3U4ZFSy-2KVholBT-56" edge="1">
          <mxGeometry relative="1" as="geometry" />
        </mxCell>
        <mxCell id="1ydk3U4ZFSy-2KVholBT-53" value="GET MIN (MEAN(DELTATS)) BY WAFERNUM,&amp;nbsp;" style="rounded=0;whiteSpace=wrap;html=1;" parent="1" vertex="1">
          <mxGeometry x="580" y="1250" width="120" height="60" as="geometry" />
        </mxCell>
        <mxCell id="1ydk3U4ZFSy-2KVholBT-78" style="edgeStyle=orthogonalEdgeStyle;rounded=0;orthogonalLoop=1;jettySize=auto;html=1;exitX=0;exitY=0.5;exitDx=0;exitDy=0;entryX=0.5;entryY=1;entryDx=0;entryDy=0;" parent="1" source="1ydk3U4ZFSy-2KVholBT-56" target="1ydk3U4ZFSy-2KVholBT-61" edge="1">
          <mxGeometry relative="1" as="geometry" />
        </mxCell>
        <mxCell id="1ydk3U4ZFSy-2KVholBT-56" value="PUT REMARKS" style="rounded=0;whiteSpace=wrap;html=1;" parent="1" vertex="1">
          <mxGeometry x="580" y="1360" width="120" height="60" as="geometry" />
        </mxCell>
        <mxCell id="1ydk3U4ZFSy-2KVholBT-79" style="edgeStyle=orthogonalEdgeStyle;rounded=0;orthogonalLoop=1;jettySize=auto;html=1;exitX=0;exitY=0.5;exitDx=0;exitDy=0;entryX=0.5;entryY=0;entryDx=0;entryDy=0;" parent="1" source="1ydk3U4ZFSy-2KVholBT-61" target="1ydk3U4ZFSy-2KVholBT-75" edge="1">
          <mxGeometry relative="1" as="geometry" />
        </mxCell>
        <mxCell id="1ydk3U4ZFSy-2KVholBT-61" value="MERGE ON (WAFERNUM, DELTATS)" style="rounded=0;whiteSpace=wrap;html=1;" parent="1" vertex="1">
          <mxGeometry x="350" y="1250" width="120" height="60" as="geometry" />
        </mxCell>
        <mxCell id="1ydk3U4ZFSy-2KVholBT-80" style="edgeStyle=orthogonalEdgeStyle;rounded=0;orthogonalLoop=1;jettySize=auto;html=1;exitX=0.5;exitY=1;exitDx=0;exitDy=0;" parent="1" source="1ydk3U4ZFSy-2KVholBT-75" target="1ydk3U4ZFSy-2KVholBT-81" edge="1">
          <mxGeometry relative="1" as="geometry">
            <mxPoint x="198" y="1480" as="targetPoint" />
          </mxGeometry>
        </mxCell>
        <mxCell id="1ydk3U4ZFSy-2KVholBT-75" value="MERGE ON WAFERNUM" style="rounded=0;whiteSpace=wrap;html=1;" parent="1" vertex="1">
          <mxGeometry x="138" y="1360" width="120" height="60" as="geometry" />
        </mxCell>
        <mxCell id="1ydk3U4ZFSy-2KVholBT-87" style="edgeStyle=orthogonalEdgeStyle;rounded=0;orthogonalLoop=1;jettySize=auto;html=1;exitX=1;exitY=0.5;exitDx=0;exitDy=0;entryX=0;entryY=0.5;entryDx=0;entryDy=0;" parent="1" source="1ydk3U4ZFSy-2KVholBT-81" target="1ydk3U4ZFSy-2KVholBT-83" edge="1">
          <mxGeometry relative="1" as="geometry" />
        </mxCell>
        <mxCell id="1ydk3U4ZFSy-2KVholBT-81" value="SELECT WITH REMARKS AND COUNT &amp;gt; (toSAQTY * 3 * 0.8) ?" style="rounded=0;whiteSpace=wrap;html=1;" parent="1" vertex="1">
          <mxGeometry x="138" y="1530" width="120" height="60" as="geometry" />
        </mxCell>
        <mxCell id="1ydk3U4ZFSy-2KVholBT-93" style="edgeStyle=orthogonalEdgeStyle;rounded=0;orthogonalLoop=1;jettySize=auto;html=1;exitX=1;exitY=0.5;exitDx=0;exitDy=0;entryX=0.5;entryY=0;entryDx=0;entryDy=0;" parent="1" source="1ydk3U4ZFSy-2KVholBT-83" target="1ydk3U4ZFSy-2KVholBT-88" edge="1">
          <mxGeometry relative="1" as="geometry" />
        </mxCell>
        <mxCell id="1ydk3U4ZFSy-2KVholBT-83" value="DROP WAFERNUM DUPLICATES" style="rounded=0;whiteSpace=wrap;html=1;" parent="1" vertex="1">
          <mxGeometry x="350" y="1530" width="120" height="60" as="geometry" />
        </mxCell>
        <mxCell id="1ydk3U4ZFSy-2KVholBT-100" style="edgeStyle=orthogonalEdgeStyle;rounded=0;orthogonalLoop=1;jettySize=auto;html=1;exitX=0.5;exitY=1;exitDx=0;exitDy=0;entryX=0.5;entryY=0;entryDx=0;entryDy=0;" parent="1" source="1ydk3U4ZFSy-2KVholBT-88" target="1ydk3U4ZFSy-2KVholBT-96" edge="1">
          <mxGeometry relative="1" as="geometry" />
        </mxCell>
        <mxCell id="1ydk3U4ZFSy-2KVholBT-88" value="MERGE ON WAFERNUM, ACTIVEUNTILTS" style="rounded=0;whiteSpace=wrap;html=1;" parent="1" vertex="1">
          <mxGeometry x="580" y="1630" width="120" height="60" as="geometry" />
        </mxCell>
        <mxCell id="1ydk3U4ZFSy-2KVholBT-102" style="edgeStyle=orthogonalEdgeStyle;rounded=0;orthogonalLoop=1;jettySize=auto;html=1;exitX=0.5;exitY=1;exitDx=0;exitDy=0;entryX=0.5;entryY=0;entryDx=0;entryDy=0;" parent="1" source="1ydk3U4ZFSy-2KVholBT-96" target="1ydk3U4ZFSy-2KVholBT-101" edge="1">
          <mxGeometry relative="1" as="geometry" />
        </mxCell>
        <mxCell id="1ydk3U4ZFSy-2KVholBT-96" value="SELECT WITH REMARKS" style="rounded=0;whiteSpace=wrap;html=1;" parent="1" vertex="1">
          <mxGeometry x="580" y="1740" width="120" height="60" as="geometry" />
        </mxCell>
        <mxCell id="1ydk3U4ZFSy-2KVholBT-111" style="edgeStyle=orthogonalEdgeStyle;rounded=0;orthogonalLoop=1;jettySize=auto;html=1;exitX=0;exitY=0.5;exitDx=0;exitDy=0;entryX=1;entryY=0.5;entryDx=0;entryDy=0;" parent="1" source="1ydk3U4ZFSy-2KVholBT-101" target="1ydk3U4ZFSy-2KVholBT-106" edge="1">
          <mxGeometry relative="1" as="geometry" />
        </mxCell>
        <mxCell id="1ydk3U4ZFSy-2KVholBT-101" value="GET PARMVALUE ON EVERY WAFERNUM, ROWNUM (COLUMNS = PARMNAME)" style="rounded=0;whiteSpace=wrap;html=1;" parent="1" vertex="1">
          <mxGeometry x="520" y="1850" width="240" height="60" as="geometry" />
        </mxCell>
        <mxCell id="1ydk3U4ZFSy-2KVholBT-113" style="edgeStyle=orthogonalEdgeStyle;rounded=0;orthogonalLoop=1;jettySize=auto;html=1;exitX=0.5;exitY=1;exitDx=0;exitDy=0;entryX=0.5;entryY=0;entryDx=0;entryDy=0;" parent="1" source="1ydk3U4ZFSy-2KVholBT-106" target="1ydk3U4ZFSy-2KVholBT-112" edge="1">
          <mxGeometry relative="1" as="geometry" />
        </mxCell>
        <mxCell id="1ydk3U4ZFSy-2KVholBT-106" value="MERGE ON WAFERNUM" style="rounded=0;whiteSpace=wrap;html=1;" parent="1" vertex="1">
          <mxGeometry x="30" y="1850" width="120" height="60" as="geometry" />
        </mxCell>
        <mxCell id="63hM3TB45n_uLfok9Vn5-3" style="edgeStyle=orthogonalEdgeStyle;rounded=0;orthogonalLoop=1;jettySize=auto;html=1;exitX=1;exitY=0.5;exitDx=0;exitDy=0;entryX=0;entryY=0.5;entryDx=0;entryDy=0;" edge="1" parent="1" source="1ydk3U4ZFSy-2KVholBT-112" target="1ydk3U4ZFSy-2KVholBT-115">
          <mxGeometry relative="1" as="geometry" />
        </mxCell>
        <mxCell id="1ydk3U4ZFSy-2KVholBT-112" value="QUAD = CEILING(ROWNUM / (WAFERSIZE / toQDSIZE))" style="rounded=0;whiteSpace=wrap;html=1;" parent="1" vertex="1">
          <mxGeometry x="-10" y="1960" width="200" height="60" as="geometry" />
        </mxCell>
        <mxCell id="63hM3TB45n_uLfok9Vn5-7" style="edgeStyle=orthogonalEdgeStyle;rounded=0;orthogonalLoop=1;jettySize=auto;html=1;exitX=1;exitY=0.5;exitDx=0;exitDy=0;" edge="1" parent="1" source="1ydk3U4ZFSy-2KVholBT-115" target="63hM3TB45n_uLfok9Vn5-5">
          <mxGeometry relative="1" as="geometry" />
        </mxCell>
        <mxCell id="1ydk3U4ZFSy-2KVholBT-115" value="GET RW SEPARATION ON EVERY WAFERNUM, UPDATE ON EACH WAFERNUM" style="rounded=0;whiteSpace=wrap;html=1;" parent="1" vertex="1">
          <mxGeometry x="288" y="1960" width="170" height="60" as="geometry" />
        </mxCell>
        <mxCell id="63hM3TB45n_uLfok9Vn5-8" style="edgeStyle=orthogonalEdgeStyle;rounded=0;orthogonalLoop=1;jettySize=auto;html=1;exitX=0.5;exitY=1;exitDx=0;exitDy=0;" edge="1" parent="1" source="63hM3TB45n_uLfok9Vn5-5" target="63hM3TB45n_uLfok9Vn5-9">
          <mxGeometry relative="1" as="geometry">
            <mxPoint x="640" y="2240" as="targetPoint" />
          </mxGeometry>
        </mxCell>
        <mxCell id="63hM3TB45n_uLfok9Vn5-5" value="MERGE ON WAFERNUM, ROWNUM&amp;nbsp;" style="rounded=0;whiteSpace=wrap;html=1;" vertex="1" parent="1">
          <mxGeometry x="580" y="2100" width="120" height="60" as="geometry" />
        </mxCell>
        <mxCell id="63hM3TB45n_uLfok9Vn5-12" style="edgeStyle=orthogonalEdgeStyle;rounded=0;orthogonalLoop=1;jettySize=auto;html=1;exitX=0.5;exitY=1;exitDx=0;exitDy=0;entryX=0.5;entryY=0;entryDx=0;entryDy=0;" edge="1" parent="1" source="63hM3TB45n_uLfok9Vn5-9" target="63hM3TB45n_uLfok9Vn5-11">
          <mxGeometry relative="1" as="geometry" />
        </mxCell>
        <mxCell id="63hM3TB45n_uLfok9Vn5-9" value="GET DELTA TO = TO - EXPERIMENTAL OFFSET&lt;br&gt;GET DELTA WAL = WATARGET - WEDGE ANGLE FEEDFORWARD&lt;br&gt;" style="rounded=0;whiteSpace=wrap;html=1;" vertex="1" parent="1">
          <mxGeometry x="435" y="2210" width="410" height="60" as="geometry" />
        </mxCell>
        <mxCell id="63hM3TB45n_uLfok9Vn5-16" style="edgeStyle=orthogonalEdgeStyle;rounded=0;orthogonalLoop=1;jettySize=auto;html=1;exitX=0;exitY=0.5;exitDx=0;exitDy=0;" edge="1" parent="1" source="63hM3TB45n_uLfok9Vn5-11" target="63hM3TB45n_uLfok9Vn5-14">
          <mxGeometry relative="1" as="geometry" />
        </mxCell>
        <mxCell id="63hM3TB45n_uLfok9Vn5-20" style="edgeStyle=orthogonalEdgeStyle;rounded=0;orthogonalLoop=1;jettySize=auto;html=1;exitX=0.5;exitY=1;exitDx=0;exitDy=0;entryX=0.5;entryY=0;entryDx=0;entryDy=0;" edge="1" parent="1" source="63hM3TB45n_uLfok9Vn5-11" target="63hM3TB45n_uLfok9Vn5-18">
          <mxGeometry relative="1" as="geometry" />
        </mxCell>
        <mxCell id="63hM3TB45n_uLfok9Vn5-11" value="GET MEAN SIGMA OF MCW, COUNT COLNUM, GROUP BY WAFERNUM, DELTA TO, DELTA WAL" style="rounded=0;whiteSpace=wrap;html=1;" vertex="1" parent="1">
          <mxGeometry x="485" y="2320" width="310" height="60" as="geometry" />
        </mxCell>
        <mxCell id="63hM3TB45n_uLfok9Vn5-19" style="edgeStyle=orthogonalEdgeStyle;rounded=0;orthogonalLoop=1;jettySize=auto;html=1;exitX=0.5;exitY=1;exitDx=0;exitDy=0;entryX=0.5;entryY=0;entryDx=0;entryDy=0;" edge="1" parent="1" source="63hM3TB45n_uLfok9Vn5-14" target="63hM3TB45n_uLfok9Vn5-18">
          <mxGeometry relative="1" as="geometry" />
        </mxCell>
        <mxCell id="63hM3TB45n_uLfok9Vn5-14" value="GET 17 83 PERCENTILE PWE WAFERNUM" style="rounded=0;whiteSpace=wrap;html=1;" vertex="1" parent="1">
          <mxGeometry x="-15" y="2320" width="210" height="60" as="geometry" />
        </mxCell>
        <mxCell id="63hM3TB45n_uLfok9Vn5-23" style="edgeStyle=orthogonalEdgeStyle;rounded=0;orthogonalLoop=1;jettySize=auto;html=1;exitX=0.5;exitY=1;exitDx=0;exitDy=0;entryX=0.5;entryY=0;entryDx=0;entryDy=0;" edge="1" parent="1" source="63hM3TB45n_uLfok9Vn5-18" target="63hM3TB45n_uLfok9Vn5-22">
          <mxGeometry relative="1" as="geometry" />
        </mxCell>
        <mxCell id="63hM3TB45n_uLfok9Vn5-18" value="MERGE ON WAFERNUM" style="rounded=0;whiteSpace=wrap;html=1;" vertex="1" parent="1">
          <mxGeometry x="300" y="2520" width="120" height="60" as="geometry" />
        </mxCell>
        <mxCell id="63hM3TB45n_uLfok9Vn5-25" style="edgeStyle=orthogonalEdgeStyle;rounded=0;orthogonalLoop=1;jettySize=auto;html=1;exitX=0.5;exitY=1;exitDx=0;exitDy=0;" edge="1" parent="1" source="63hM3TB45n_uLfok9Vn5-22" target="63hM3TB45n_uLfok9Vn5-26">
          <mxGeometry relative="1" as="geometry">
            <mxPoint x="359.5" y="2790" as="targetPoint" />
          </mxGeometry>
        </mxCell>
        <mxCell id="63hM3TB45n_uLfok9Vn5-22" value="FLAG DATA POINT SINSIDE 17 83 PERCENTILE" style="rounded=0;whiteSpace=wrap;html=1;" vertex="1" parent="1">
          <mxGeometry x="204" y="2650" width="312" height="60" as="geometry" />
        </mxCell>
        <mxCell id="63hM3TB45n_uLfok9Vn5-29" style="edgeStyle=orthogonalEdgeStyle;rounded=0;orthogonalLoop=1;jettySize=auto;html=1;exitX=0.5;exitY=1;exitDx=0;exitDy=0;entryX=0.5;entryY=0;entryDx=0;entryDy=0;" edge="1" parent="1" source="63hM3TB45n_uLfok9Vn5-26" target="63hM3TB45n_uLfok9Vn5-28">
          <mxGeometry relative="1" as="geometry" />
        </mxCell>
        <mxCell id="63hM3TB45n_uLfok9Vn5-26" value="GET MEAN AND SIGMA OF DATA POINTS INSIDE PERCENTILE" style="rounded=0;whiteSpace=wrap;html=1;" vertex="1" parent="1">
          <mxGeometry x="249.5" y="2770" width="220.5" height="60" as="geometry" />
        </mxCell>
        <mxCell id="63hM3TB45n_uLfok9Vn5-31" style="edgeStyle=orthogonalEdgeStyle;rounded=0;orthogonalLoop=1;jettySize=auto;html=1;exitX=0.5;exitY=1;exitDx=0;exitDy=0;entryX=0.5;entryY=0;entryDx=0;entryDy=0;" edge="1" parent="1" source="63hM3TB45n_uLfok9Vn5-28" target="63hM3TB45n_uLfok9Vn5-30">
          <mxGeometry relative="1" as="geometry" />
        </mxCell>
        <mxCell id="63hM3TB45n_uLfok9Vn5-28" value="SELECT DATA WITHIN MEAN +- 6 * SIGMA" style="rounded=0;whiteSpace=wrap;html=1;" vertex="1" parent="1">
          <mxGeometry x="255" y="2890" width="210" height="60" as="geometry" />
        </mxCell>
        <mxCell id="63hM3TB45n_uLfok9Vn5-38" style="edgeStyle=orthogonalEdgeStyle;rounded=0;orthogonalLoop=1;jettySize=auto;html=1;exitX=0;exitY=0.5;exitDx=0;exitDy=0;entryX=1;entryY=0.5;entryDx=0;entryDy=0;" edge="1" parent="1" source="63hM3TB45n_uLfok9Vn5-30" target="63hM3TB45n_uLfok9Vn5-33">
          <mxGeometry relative="1" as="geometry" />
        </mxCell>
        <mxCell id="63hM3TB45n_uLfok9Vn5-42" style="edgeStyle=orthogonalEdgeStyle;rounded=0;orthogonalLoop=1;jettySize=auto;html=1;exitX=0.5;exitY=1;exitDx=0;exitDy=0;entryX=0.5;entryY=0;entryDx=0;entryDy=0;" edge="1" parent="1" source="63hM3TB45n_uLfok9Vn5-30" target="63hM3TB45n_uLfok9Vn5-40">
          <mxGeometry relative="1" as="geometry" />
        </mxCell>
        <mxCell id="63hM3TB45n_uLfok9Vn5-30" value="GET MCW MEAN SIGMA, COLNUM COUNT BY WAFERNUM, MCWSA TARGET, MCWSA SENSITIVITY" style="rounded=0;whiteSpace=wrap;html=1;" vertex="1" parent="1">
          <mxGeometry x="148.75" y="3010" width="422" height="60" as="geometry" />
        </mxCell>
        <mxCell id="63hM3TB45n_uLfok9Vn5-41" style="edgeStyle=orthogonalEdgeStyle;rounded=0;orthogonalLoop=1;jettySize=auto;html=1;exitX=0.5;exitY=1;exitDx=0;exitDy=0;entryX=0.5;entryY=0;entryDx=0;entryDy=0;" edge="1" parent="1" source="63hM3TB45n_uLfok9Vn5-33" target="63hM3TB45n_uLfok9Vn5-40">
          <mxGeometry relative="1" as="geometry" />
        </mxCell>
        <mxCell id="63hM3TB45n_uLfok9Vn5-33" value="dMCW = MCWM - SA_MCW_SENSITIVITY * 1000&lt;br&gt;&lt;br&gt;dFP = dMCW * SA_MCW_Sensitivity" style="rounded=0;whiteSpace=wrap;html=1;" vertex="1" parent="1">
          <mxGeometry x="-300" y="3010" width="370" height="60" as="geometry" />
        </mxCell>
        <mxCell id="63hM3TB45n_uLfok9Vn5-40" value="MERGE ON WAFERNUM" style="rounded=0;whiteSpace=wrap;html=1;" vertex="1" parent="1">
          <mxGeometry x="58" y="3170" width="120" height="60" as="geometry" />
        </mxCell>
        <mxCell id="63hM3TB45n_uLfok9Vn5-44" value="GET MCW MEAN SIGMA PER QUAD" style="rounded=0;whiteSpace=wrap;html=1;" vertex="1" parent="1">
          <mxGeometry x="58" y="3290" width="120" height="60" as="geometry" />
        </mxCell>
      </root>
    </mxGraphModel>
  </diagram>
</mxfile>
